<mxfile host="app.diagrams.net" modified="2023-10-23T19:04:57.971Z" agent="Mozilla/5.0 (Windows NT 10.0; Win64; x64) AppleWebKit/537.36 (KHTML, like Gecko) Chrome/118.0.0.0 Safari/537.36" version="22.0.6" etag="FA01eOjGDLw3q4rblOxw" type="github">
  <diagram name="Σελίδα-1" id="EeeKNgNXJOvD6ny1U-Dt">
    <mxGraphModel>
      <root>
        <mxCell id="0" />
        <mxCell id="1" parent="0" />
      </root>
    </mxGraphModel>
  </diagram>
</mxfile>
